<mxfile host="app.diagrams.net" modified="2022-10-27T09:58:53.337Z" agent="5.0 (Windows NT 10.0; Win64; x64) AppleWebKit/537.36 (KHTML, like Gecko) Chrome/106.0.0.0 Safari/537.36" etag="oeaGABXxkQO0jaxwFi4A" version="20.5.1" type="github">
  <diagram id="C5RBs43oDa-KdzZeNtuy" name="Page-1">
    <mxGraphModel dx="1422" dy="832" grid="1" gridSize="10" guides="1" tooltips="1" connect="1" arrows="1" fold="1" page="1" pageScale="1" pageWidth="827" pageHeight="1169" math="0" shadow="0">
      <root>
        <mxCell id="WIyWlLk6GJQsqaUBKTNV-0" />
        <mxCell id="WIyWlLk6GJQsqaUBKTNV-1" parent="WIyWlLk6GJQsqaUBKTNV-0" />
        <mxCell id="VU6SjYW6GICVg88EbFYR-4" value="open cam" style="rounded=1;whiteSpace=wrap;html=1;arcSize=40;fontColor=#000000;fillColor=#ffffc0;strokeColor=#ff0000;" vertex="1" parent="WIyWlLk6GJQsqaUBKTNV-1">
          <mxGeometry x="410" y="190" width="120" height="40" as="geometry" />
        </mxCell>
        <mxCell id="VU6SjYW6GICVg88EbFYR-8" value="agreed?" style="rhombus;whiteSpace=wrap;html=1;fillColor=#ffffc0;strokeColor=#ff0000;" vertex="1" parent="WIyWlLk6GJQsqaUBKTNV-1">
          <mxGeometry x="135" y="470" width="90" height="50" as="geometry" />
        </mxCell>
        <mxCell id="VU6SjYW6GICVg88EbFYR-9" value="no" style="edgeStyle=orthogonalEdgeStyle;html=1;align=left;verticalAlign=bottom;endArrow=open;endSize=8;strokeColor=#ff0000;rounded=0;entryX=0;entryY=0.625;entryDx=0;entryDy=0;entryPerimeter=0;" edge="1" source="VU6SjYW6GICVg88EbFYR-8" parent="WIyWlLk6GJQsqaUBKTNV-1" target="VU6SjYW6GICVg88EbFYR-11">
          <mxGeometry x="-1" relative="1" as="geometry">
            <mxPoint x="320" y="420" as="targetPoint" />
          </mxGeometry>
        </mxCell>
        <mxCell id="VU6SjYW6GICVg88EbFYR-10" value="yes" style="edgeStyle=orthogonalEdgeStyle;html=1;align=left;verticalAlign=top;endArrow=open;endSize=8;strokeColor=#ff0000;rounded=0;entryX=0;entryY=0.5;entryDx=0;entryDy=0;" edge="1" source="VU6SjYW6GICVg88EbFYR-8" parent="WIyWlLk6GJQsqaUBKTNV-1" target="VU6SjYW6GICVg88EbFYR-46">
          <mxGeometry x="-1" relative="1" as="geometry">
            <mxPoint x="240" y="550" as="targetPoint" />
            <Array as="points">
              <mxPoint x="180" y="555" />
            </Array>
          </mxGeometry>
        </mxCell>
        <mxCell id="VU6SjYW6GICVg88EbFYR-11" value="delete photo" style="rounded=1;whiteSpace=wrap;html=1;arcSize=40;fontColor=#000000;fillColor=#ffffc0;strokeColor=#ff0000;" vertex="1" parent="WIyWlLk6GJQsqaUBKTNV-1">
          <mxGeometry x="414" y="470" width="120" height="40" as="geometry" />
        </mxCell>
        <mxCell id="VU6SjYW6GICVg88EbFYR-16" value="clicks on &quot;take a photo&quot;" style="rounded=1;whiteSpace=wrap;html=1;arcSize=40;fontColor=#000000;fillColor=#ffffc0;strokeColor=#ff0000;" vertex="1" parent="WIyWlLk6GJQsqaUBKTNV-1">
          <mxGeometry x="120" y="190" width="120" height="40" as="geometry" />
        </mxCell>
        <mxCell id="VU6SjYW6GICVg88EbFYR-17" value="" style="edgeStyle=orthogonalEdgeStyle;html=1;verticalAlign=bottom;endArrow=open;endSize=8;strokeColor=#ff0000;rounded=0;entryX=0;entryY=0.5;entryDx=0;entryDy=0;" edge="1" source="VU6SjYW6GICVg88EbFYR-16" parent="WIyWlLk6GJQsqaUBKTNV-1" target="VU6SjYW6GICVg88EbFYR-4">
          <mxGeometry relative="1" as="geometry">
            <mxPoint x="210" y="300" as="targetPoint" />
          </mxGeometry>
        </mxCell>
        <mxCell id="VU6SjYW6GICVg88EbFYR-19" value="" style="ellipse;html=1;shape=startState;fillColor=#000000;strokeColor=#ff0000;" vertex="1" parent="WIyWlLk6GJQsqaUBKTNV-1">
          <mxGeometry x="165" y="110" width="30" height="30" as="geometry" />
        </mxCell>
        <mxCell id="VU6SjYW6GICVg88EbFYR-20" value="" style="edgeStyle=orthogonalEdgeStyle;html=1;verticalAlign=bottom;endArrow=open;endSize=8;strokeColor=#ff0000;rounded=0;entryX=0.5;entryY=0;entryDx=0;entryDy=0;" edge="1" source="VU6SjYW6GICVg88EbFYR-19" parent="WIyWlLk6GJQsqaUBKTNV-1" target="VU6SjYW6GICVg88EbFYR-16">
          <mxGeometry relative="1" as="geometry">
            <mxPoint x="195" y="200" as="targetPoint" />
          </mxGeometry>
        </mxCell>
        <mxCell id="VU6SjYW6GICVg88EbFYR-25" value="" style="endArrow=none;dashed=1;html=1;rounded=0;" edge="1" parent="WIyWlLk6GJQsqaUBKTNV-1">
          <mxGeometry width="50" height="50" relative="1" as="geometry">
            <mxPoint x="620" y="810" as="sourcePoint" />
            <mxPoint x="620" y="65" as="targetPoint" />
          </mxGeometry>
        </mxCell>
        <mxCell id="VU6SjYW6GICVg88EbFYR-26" value="UI" style="text;html=1;resizable=0;autosize=1;align=center;verticalAlign=middle;points=[];fillColor=none;strokeColor=none;rounded=0;" vertex="1" parent="WIyWlLk6GJQsqaUBKTNV-1">
          <mxGeometry x="430" y="65" width="40" height="30" as="geometry" />
        </mxCell>
        <mxCell id="VU6SjYW6GICVg88EbFYR-27" value="Backend" style="text;html=1;resizable=0;autosize=1;align=center;verticalAlign=middle;points=[];fillColor=none;strokeColor=none;rounded=0;" vertex="1" parent="WIyWlLk6GJQsqaUBKTNV-1">
          <mxGeometry x="690" y="65" width="70" height="30" as="geometry" />
        </mxCell>
        <mxCell id="VU6SjYW6GICVg88EbFYR-28" value="" style="endArrow=none;dashed=1;html=1;rounded=0;" edge="1" parent="WIyWlLk6GJQsqaUBKTNV-1">
          <mxGeometry width="50" height="50" relative="1" as="geometry">
            <mxPoint x="300" y="810" as="sourcePoint" />
            <mxPoint x="300" y="80" as="targetPoint" />
          </mxGeometry>
        </mxCell>
        <mxCell id="VU6SjYW6GICVg88EbFYR-29" value="User" style="text;html=1;resizable=0;autosize=1;align=center;verticalAlign=middle;points=[];fillColor=none;strokeColor=none;rounded=0;" vertex="1" parent="WIyWlLk6GJQsqaUBKTNV-1">
          <mxGeometry x="165" y="65" width="50" height="30" as="geometry" />
        </mxCell>
        <mxCell id="VU6SjYW6GICVg88EbFYR-33" value="" style="edgeStyle=orthogonalEdgeStyle;html=1;verticalAlign=bottom;endArrow=open;endSize=8;strokeColor=#ff0000;rounded=0;entryX=1;entryY=0.5;entryDx=0;entryDy=0;" edge="1" parent="WIyWlLk6GJQsqaUBKTNV-1" target="VU6SjYW6GICVg88EbFYR-36">
          <mxGeometry relative="1" as="geometry">
            <mxPoint x="470" y="280" as="targetPoint" />
            <mxPoint x="470" y="230" as="sourcePoint" />
            <Array as="points">
              <mxPoint x="470" y="290" />
            </Array>
          </mxGeometry>
        </mxCell>
        <mxCell id="VU6SjYW6GICVg88EbFYR-35" value="" style="edgeStyle=orthogonalEdgeStyle;html=1;verticalAlign=bottom;endArrow=open;endSize=8;strokeColor=#ff0000;rounded=0;entryX=1;entryY=0.5;entryDx=0;entryDy=0;exitX=1;exitY=0.5;exitDx=0;exitDy=0;" edge="1" source="VU6SjYW6GICVg88EbFYR-11" parent="WIyWlLk6GJQsqaUBKTNV-1" target="VU6SjYW6GICVg88EbFYR-4">
          <mxGeometry relative="1" as="geometry">
            <mxPoint x="560" y="210" as="targetPoint" />
            <mxPoint x="534" y="430" as="sourcePoint" />
            <Array as="points">
              <mxPoint x="560" y="490" />
              <mxPoint x="560" y="210" />
            </Array>
          </mxGeometry>
        </mxCell>
        <mxCell id="VU6SjYW6GICVg88EbFYR-36" value="takes photo" style="rounded=1;whiteSpace=wrap;html=1;arcSize=40;fontColor=#000000;fillColor=#ffffc0;strokeColor=#ff0000;" vertex="1" parent="WIyWlLk6GJQsqaUBKTNV-1">
          <mxGeometry x="120" y="270" width="120" height="40" as="geometry" />
        </mxCell>
        <mxCell id="VU6SjYW6GICVg88EbFYR-37" value="" style="edgeStyle=orthogonalEdgeStyle;html=1;verticalAlign=bottom;endArrow=open;endSize=8;strokeColor=#ff0000;rounded=0;entryX=0;entryY=0.5;entryDx=0;entryDy=0;" edge="1" source="VU6SjYW6GICVg88EbFYR-36" parent="WIyWlLk6GJQsqaUBKTNV-1" target="VU6SjYW6GICVg88EbFYR-38">
          <mxGeometry relative="1" as="geometry">
            <mxPoint x="180" y="360" as="targetPoint" />
            <Array as="points">
              <mxPoint x="180" y="330" />
            </Array>
          </mxGeometry>
        </mxCell>
        <mxCell id="VU6SjYW6GICVg88EbFYR-38" value="asks users if photo is ok" style="rounded=1;whiteSpace=wrap;html=1;arcSize=40;fontColor=#000000;fillColor=#ffffc0;strokeColor=#ff0000;" vertex="1" parent="WIyWlLk6GJQsqaUBKTNV-1">
          <mxGeometry x="410" y="310" width="120" height="40" as="geometry" />
        </mxCell>
        <mxCell id="VU6SjYW6GICVg88EbFYR-39" value="" style="edgeStyle=orthogonalEdgeStyle;html=1;verticalAlign=bottom;endArrow=open;endSize=8;strokeColor=#ff0000;rounded=0;entryX=0.5;entryY=0;entryDx=0;entryDy=0;" edge="1" source="VU6SjYW6GICVg88EbFYR-38" parent="WIyWlLk6GJQsqaUBKTNV-1" target="VU6SjYW6GICVg88EbFYR-43">
          <mxGeometry relative="1" as="geometry">
            <mxPoint x="190" y="390" as="targetPoint" />
            <Array as="points">
              <mxPoint x="470" y="380" />
              <mxPoint x="180" y="380" />
            </Array>
          </mxGeometry>
        </mxCell>
        <mxCell id="VU6SjYW6GICVg88EbFYR-43" value="user agrees" style="rounded=1;whiteSpace=wrap;html=1;arcSize=40;fontColor=#000000;fillColor=#ffffc0;strokeColor=#ff0000;" vertex="1" parent="WIyWlLk6GJQsqaUBKTNV-1">
          <mxGeometry x="120" y="400" width="120" height="40" as="geometry" />
        </mxCell>
        <mxCell id="VU6SjYW6GICVg88EbFYR-44" value="" style="edgeStyle=orthogonalEdgeStyle;html=1;verticalAlign=bottom;endArrow=open;endSize=8;strokeColor=#ff0000;rounded=0;" edge="1" source="VU6SjYW6GICVg88EbFYR-43" parent="WIyWlLk6GJQsqaUBKTNV-1">
          <mxGeometry relative="1" as="geometry">
            <mxPoint x="180" y="470" as="targetPoint" />
          </mxGeometry>
        </mxCell>
        <mxCell id="VU6SjYW6GICVg88EbFYR-46" value="asks user for category" style="rounded=1;whiteSpace=wrap;html=1;arcSize=40;fontColor=#000000;fillColor=#ffffc0;strokeColor=#ff0000;" vertex="1" parent="WIyWlLk6GJQsqaUBKTNV-1">
          <mxGeometry x="414" y="535" width="120" height="40" as="geometry" />
        </mxCell>
        <mxCell id="VU6SjYW6GICVg88EbFYR-47" value="" style="edgeStyle=orthogonalEdgeStyle;html=1;verticalAlign=bottom;endArrow=open;endSize=8;strokeColor=#ff0000;rounded=0;entryX=1;entryY=0.5;entryDx=0;entryDy=0;" edge="1" source="VU6SjYW6GICVg88EbFYR-46" parent="WIyWlLk6GJQsqaUBKTNV-1" target="VU6SjYW6GICVg88EbFYR-48">
          <mxGeometry relative="1" as="geometry">
            <mxPoint x="474" y="635" as="targetPoint" />
            <Array as="points">
              <mxPoint x="474" y="620" />
            </Array>
          </mxGeometry>
        </mxCell>
        <mxCell id="VU6SjYW6GICVg88EbFYR-48" value="enters catergory" style="rounded=1;whiteSpace=wrap;html=1;arcSize=40;fontColor=#000000;fillColor=#ffffc0;strokeColor=#ff0000;" vertex="1" parent="WIyWlLk6GJQsqaUBKTNV-1">
          <mxGeometry x="120" y="600" width="120" height="40" as="geometry" />
        </mxCell>
        <mxCell id="VU6SjYW6GICVg88EbFYR-49" value="" style="edgeStyle=orthogonalEdgeStyle;html=1;verticalAlign=bottom;endArrow=open;endSize=8;strokeColor=#ff0000;rounded=0;entryX=0;entryY=0.5;entryDx=0;entryDy=0;" edge="1" source="VU6SjYW6GICVg88EbFYR-48" parent="WIyWlLk6GJQsqaUBKTNV-1" target="VU6SjYW6GICVg88EbFYR-50">
          <mxGeometry relative="1" as="geometry">
            <mxPoint x="210" y="720" as="targetPoint" />
            <Array as="points">
              <mxPoint x="180" y="690" />
            </Array>
          </mxGeometry>
        </mxCell>
        <mxCell id="VU6SjYW6GICVg88EbFYR-50" value="uploads photo" style="rounded=1;whiteSpace=wrap;html=1;arcSize=40;fontColor=#000000;fillColor=#ffffc0;strokeColor=#ff0000;" vertex="1" parent="WIyWlLk6GJQsqaUBKTNV-1">
          <mxGeometry x="414" y="670" width="120" height="40" as="geometry" />
        </mxCell>
        <mxCell id="VU6SjYW6GICVg88EbFYR-51" value="" style="edgeStyle=orthogonalEdgeStyle;html=1;verticalAlign=bottom;endArrow=open;endSize=8;strokeColor=#ff0000;rounded=0;entryX=0;entryY=0.5;entryDx=0;entryDy=0;" edge="1" source="VU6SjYW6GICVg88EbFYR-50" parent="WIyWlLk6GJQsqaUBKTNV-1" target="VU6SjYW6GICVg88EbFYR-52">
          <mxGeometry relative="1" as="geometry">
            <mxPoint x="474" y="770" as="targetPoint" />
          </mxGeometry>
        </mxCell>
        <mxCell id="VU6SjYW6GICVg88EbFYR-52" value="saves photo" style="rounded=1;whiteSpace=wrap;html=1;arcSize=40;fontColor=#000000;fillColor=#ffffc0;strokeColor=#ff0000;" vertex="1" parent="WIyWlLk6GJQsqaUBKTNV-1">
          <mxGeometry x="665" y="670" width="120" height="40" as="geometry" />
        </mxCell>
        <mxCell id="VU6SjYW6GICVg88EbFYR-53" value="" style="edgeStyle=orthogonalEdgeStyle;html=1;verticalAlign=bottom;endArrow=open;endSize=8;strokeColor=#ff0000;rounded=0;" edge="1" source="VU6SjYW6GICVg88EbFYR-52" parent="WIyWlLk6GJQsqaUBKTNV-1">
          <mxGeometry relative="1" as="geometry">
            <mxPoint x="725" y="770" as="targetPoint" />
          </mxGeometry>
        </mxCell>
        <mxCell id="VU6SjYW6GICVg88EbFYR-54" value="" style="ellipse;html=1;shape=endState;fillColor=#000000;strokeColor=#ff0000;" vertex="1" parent="WIyWlLk6GJQsqaUBKTNV-1">
          <mxGeometry x="710" y="770" width="30" height="30" as="geometry" />
        </mxCell>
      </root>
    </mxGraphModel>
  </diagram>
</mxfile>
